<?xml version="1.0" encoding="UTF-8"?>
<svg version="1.1" xmlns="http://www.w3.org/2000/svg" width="500" height="500">
<path d="M0 0 C3.39746351 1.62191572 6.55873163 3.57038964 9.75 5.5625 C10.58015625 6.06330078 11.4103125 6.56410156 12.265625 7.08007812 C17.79051611 10.46066351 23.03705043 14.13847474 28.24951172 17.98022461 C32.67527345 21.23020924 37.17978747 24.36513614 41.6875 27.5 C42.66211182 28.17853027 43.63672363 28.85706055 44.64086914 29.55615234 C52.99554737 35.34974169 61.43910163 41.00455203 69.93041992 46.59570312 C72.63192339 48.38048854 75.31888093 50.18477575 78 52 C78.72727295 52.47969238 79.4545459 52.95938477 80.20385742 53.45361328 C85.79740869 57.34108078 89.49505692 62.11904928 93.4375 67.625 C94.08928223 68.51219727 94.74106445 69.39939453 95.41259766 70.31347656 C97.76533697 73.51862378 100.09540699 76.73950667 102.41357422 79.96972656 C117.51213134 101.00177262 138.52459593 106.36110786 163.44213867 110.58325195 C174.4272845 111.86999071 185.63531018 110.87053399 196.625 110.0625 C219.68365152 108.48289734 242.67599734 107.89912088 265.78512573 107.82476807 C268.13810452 107.81672698 270.49107548 107.80572537 272.84402466 107.79144287 C300.10944643 107.6434086 326.87264467 108.49719581 352 120 C352.60424805 120.27263672 353.20849609 120.54527344 353.83105469 120.82617188 C379.79372269 132.70344102 404.52566314 149.7497012 427.375 166.8125 C427.99238037 167.27350098 428.60976074 167.73450195 429.24584961 168.20947266 C439.42524677 175.98493816 439.42524677 175.98493816 440.2734375 181.91015625 C440.58649511 188.5445695 438.90093818 193.61342415 435 199 C431.00876052 202.95195563 426.91309999 205.32837659 421.25 205.6875 C409.97547753 204.73121477 399.87012263 198.50986304 390.375 192.8125 C388.09130638 191.47146445 385.80613953 190.13293468 383.51953125 188.796875 C382.4104541 188.14783203 381.30137695 187.49878906 380.15869141 186.83007812 C330.95199105 158.32077021 283.68090521 150.50241675 227.73242188 157.53466797 C169.86396331 164.79925812 169.86396331 164.79925812 149 156 C146.6722886 155.21235279 144.33922612 154.44026135 142 153.6875 C140.33279671 153.12659251 138.66590036 152.56476546 137 152 C135.6827656 153.76731449 134.37136412 155.53897761 133.0625 157.3125 C132.33160156 158.29863281 131.60070312 159.28476563 130.84765625 160.30078125 C128.87469344 162.91771863 128.87469344 162.91771863 128 166 C132.05067121 175.21271791 138.67816082 183.25779668 145 191 C145.48162598 191.59135742 145.96325195 192.18271484 146.45947266 192.79199219 C152.81687949 200.5402761 159.36239229 207.48825478 167 214 C167.66 214.66 168.32 215.32 169 216 C168.46428571 219.53571429 168.46428571 219.53571429 167 221 C159.59335443 220.5221519 159.59335443 220.5221519 157.2421875 218.453125 C156.83226562 217.97359375 156.42234375 217.4940625 156 217 C156.34851442 224.59761437 157.7193401 231.85412845 159.28076172 239.27124023 C160.6514867 245.9217278 161.73953635 252.5918375 162.76196289 259.30419922 C168.98613091 300.16056461 182.30683947 337.60809543 210 369 C210.43699219 369.49725586 210.87398438 369.99451172 211.32421875 370.50683594 C216.85755414 376.77252454 222.50802468 382.71218139 229 388 C229.57943359 388.4758252 230.15886719 388.95165039 230.75585938 389.44189453 C240.36250563 397.33786441 240.36250563 397.33786441 250.25 404.875 C254.69842821 408.35378994 257.44034246 411.51244987 258.37109375 417.3125 C258.80952239 425.81535838 255.99903157 432.91955041 250.625 439.4375 C246.59189924 443.67610908 243.22048779 445.65544155 237.375 446.5625 C222.99892154 445.88181447 207.57783095 430.77423765 197 422 C196.00613281 421.18015625 195.01226562 420.3603125 193.98828125 419.515625 C181.99025284 409.54197789 170.52172535 399.42725183 161 387 C159.8553125 385.59621094 159.8553125 385.59621094 158.6875 384.1640625 C131.34053507 350.06800687 117.59590915 311.27066727 112.79296875 268.33984375 C112.68612259 267.38729706 112.57927643 266.43475037 112.4691925 265.45333862 C111.93652499 260.68185281 111.41736949 255.90961205 110.92504883 251.13378906 C109.96665352 242.04551919 108.78157334 233.07025799 107.0078125 224.1015625 C106.8488147 223.29261032 106.68981689 222.48365814 106.52600098 221.65019226 C103.71116377 208.09626692 97.02652714 197.07024187 89 186 C88.47390137 185.27248535 87.94780273 184.5449707 87.40576172 183.79541016 C85.74488212 181.51786975 84.06490229 179.25607494 82.375 177 C81.86122803 176.30608154 81.34745605 175.61216309 80.81811523 174.8972168 C75.89018138 168.445806 70.22928906 162.64366272 62.8125 159.125 C61.29076172 158.39796875 61.29076172 158.39796875 59.73828125 157.65625 C56.84232131 156.34865814 53.91548005 155.12337943 50.98046875 153.90625 C40.92629056 149.73256115 31.74941888 145.59122889 23 139 C21.77429738 138.10689162 20.54767418 137.21504578 19.3203125 136.32421875 C9.8882165 129.41774569 0.85863022 122.05295027 -8.11669922 114.56738281 C-10.69043777 112.42538106 -13.28128321 110.3052716 -15.875 108.1875 C-16.7309375 107.48753906 -17.586875 106.78757812 -18.46875 106.06640625 C-20.19656298 104.65589226 -21.92579286 103.24711257 -23.65625 101.83984375 C-29.2043912 97.32002183 -34.69310003 92.73809834 -40.14379883 88.10180664 C-44.5946633 84.32279587 -49.1107257 80.63272443 -53.66015625 76.97265625 C-59.87827776 71.73033344 -59.87827776 71.73033344 -60.5 68 C-60 65 -60 65 -58.5 62.5625 C-54.92264189 60.32665118 -51.94666237 61.17480405 -48 62 C-44.62377224 62.95902815 -41.35171947 64.15333849 -38.0625 65.375 C-37.03906494 65.75003662 -36.01562988 66.12507324 -34.96118164 66.51147461 C-30.96703909 67.98930455 -26.98260441 69.49140703 -23 71 C-22.09455444 71.34254822 -21.18910889 71.68509644 -20.25622559 72.0380249 C-13.90404047 74.44379797 -7.55842688 76.86623661 -1.21798706 79.30279541 C0.94540546 80.13353653 3.10967464 80.96199877 5.27487183 81.7880249 C15.41204423 85.66137406 25.5327372 89.55014546 35.30859375 94.27734375 C35.95474136 94.58064102 36.60088898 94.88393829 37.26661682 95.19642639 C41.18064594 97.16683035 43.14214758 99.03325578 45 103 C45.86397362 105.64736301 46.39922546 108.27340784 47 111 C48.80589063 111.75999157 48.80589063 111.75999157 51 112 C58.23404993 107.92704752 65.40525042 98.78424874 68 91 C67.2265625 90.86464844 66.453125 90.72929688 65.65625 90.58984375 C52.23134308 87.81514145 46.47526308 79.45818634 38.54785156 69.02587891 C36.95095137 66.93580354 35.33421008 64.86261758 33.7109375 62.79296875 C22.47400692 48.46127697 11.52580016 33.91465337 0.8125 19.1875 C0.28390381 18.46498047 -0.24469238 17.74246094 -0.78930664 16.99804688 C-9 5.63985441 -9 5.63985441 -9 0 C-5.90261725 -1.54869138 -3.20870964 -0.9217938 0 0 Z " fill="#FFFFFF" transform="translate(60,28)"/>
<path d="M0 0 C1.04027344 0.26103516 1.04027344 0.26103516 2.1015625 0.52734375 C5.5211241 1.41171313 8.67589618 2.36610555 11.75 4.125 C11.75 5.445 11.75 6.765 11.75 8.125 C8.29712639 9.85143681 4.42979889 9.35201028 0.625 9.375 C-0.20515625 9.395625 -1.0353125 9.41625 -1.890625 9.4375 C-7.70051817 9.47392566 -11.95591962 8.55390993 -17.25 6.125 C-17.91 5.465 -18.57 4.805 -19.25 4.125 C-19 1.5625 -19 1.5625 -18.25 -0.875 C-12.74183892 -3.62908054 -5.65236877 -1.5151787 0 0 Z " fill="#FFFFFF" transform="translate(248.25,198.875)"/>
<path d="M0 0 C5.48292367 1.94043017 10.85404515 4.33053518 15.125 8.375 C15.125 9.365 15.125 10.355 15.125 11.375 C9.57364572 14.15067714 1.32636713 11.31546689 -4.25 9.5625 C-8.37850979 8.07730882 -11.92041847 6.75166461 -14.875 3.375 C-14.875 2.055 -14.875 0.735 -14.875 -0.625 C-9.97719163 -3.07390418 -4.96806192 -1.5271721 0 0 Z " fill="#FFFFFF" transform="translate(234.875,210.625)"/>
<path d="M0 0 C7.15325393 2.99287697 13.61068038 6.3657113 19 12 C19 13.32 19 14.64 19 16 C13.14524443 16.61969767 9.51206323 14.57392741 4.5625 11.8125 C3.83740234 11.42513672 3.11230469 11.03777344 2.36523438 10.63867188 C-2.35082664 8.07513466 -6.81400542 5.36975321 -11 2 C-11 1.01 -11 0.02 -11 -1 C-7.41745645 -2.79127177 -3.63791285 -1.15130479 0 0 Z " fill="#FFFFFF" transform="translate(222,221)"/>
</svg>
